<?xml version="1.0" encoding="UTF-8"?><!DOCTYPE svg PUBLIC "-//W3C//DTD SVG 1.1//EN" "http://www.w3.org/Graphics/SVG/1.1/DTD/svg11.dtd"><svg xmlns="http://www.w3.org/2000/svg" xmlns:xlink="http://www.w3.org/1999/xlink"><symbol id="icon-arrow-down" viewBox="0 0 11 7">
<path d="M1 1L5.5 5.5L10 1" stroke="#333333" stroke-width="1.4"/>
</symbol><symbol id="icon-arrow" viewBox="0 0 38 38">
<path d="M30.5 9C30.5 8.17157 29.8284 7.5 29 7.5L15.5 7.5C14.6716 7.5 14 8.17157 14 9C14 9.82843 14.6716 10.5 15.5 10.5H27.5V22.5C27.5 23.3284 28.1716 24 29 24C29.8284 24 30.5 23.3284 30.5 22.5L30.5 9ZM9.06066 31.0607L30.0607 10.0607L27.9393 7.93934L6.93934 28.9393L9.06066 31.0607Z" fill="white"/>
</symbol><symbol id="icon-close" viewBox="0 0 52 34">
<path d="M35.9856 6.99542L15.9946 26.9863" stroke="#6E6E6E" stroke-width="2"/>
<path d="M35.9858 26.9863L15.9949 6.99542" stroke="#6E6E6E" stroke-width="2"/>
</symbol><symbol id="icon-empty" viewBox="0 0 187 192">
<path d="M183.057 60.4949L128.496 115.225L61.6709 59.5904L113.204 0.485229L183.057 60.4949Z" fill="#A0A0A0"/>
<path d="M186.086 87.292L115.37 118.443L73.3238 42.3216L142.799 5.9751L186.086 87.292Z" fill="#E5E5E5"/>
<path d="M145.588 125.637C163.458 94.4123 152.632 54.6138 121.408 36.744C90.1832 18.8743 50.3846 29.7004 32.5149 60.9247C14.6452 92.149 25.4712 131.948 56.6956 149.817C87.9199 167.687 127.718 156.861 145.588 125.637Z" fill="#8E8E8E"/>
<path d="M38.8493 166.127L71.4308 93.1395L67.3713 91.1833L30.3516 162.067C29.1527 164.423 30.1203 167.305 32.4971 168.462C34.895 169.619 37.7556 168.567 38.8493 166.127Z" fill="#E2E2E2"/>
<path d="M88.8357 87.8165C94.0752 76.9429 92.0021 65.0825 84.2053 61.3256C76.4085 57.5687 65.8406 63.338 60.6011 74.2116C55.3616 85.0852 57.4347 96.9456 65.2315 100.702C73.0283 104.459 83.5963 98.6901 88.8357 87.8165Z" fill="#F2F2F2"/>
<path opacity="0.2" d="M83.5971 85.491C87.4094 77.5791 86.4616 69.2194 81.48 66.819C76.4985 64.4186 69.3696 68.8866 65.5572 76.7985C61.7449 84.7104 62.6927 93.0702 67.6742 95.4705C72.6558 97.8709 79.7847 93.4029 83.5971 85.491Z" fill="#B3B3B3"/>
<path d="M152.79 184.868L120.167 111.902L115.981 113.626L144.103 188.486C145.05 190.947 147.847 192.167 150.308 191.157C152.748 190.148 153.884 187.308 152.79 184.868Z" fill="#E2E2E2"/>
<path d="M115.539 83.2115L121.66 98.0403C122.08 99.071 121.596 100.228 120.566 100.649C119.535 101.069 118.378 100.585 117.958 99.5548L111.037 82.8118C110.785 82.1808 110.154 81.7812 109.481 81.8232C108.366 81.8653 107.63 83.0011 108.072 84.0528L115.118 101.111C115.476 101.974 115.055 102.962 114.214 103.299L113.562 103.572C112.741 103.909 111.795 103.53 111.458 102.689L104.496 85.8407C104.033 84.7049 102.561 84.4314 101.698 85.2938C101.215 85.7776 101.067 86.5138 101.341 87.1448L108.345 104.119C108.661 104.876 108.303 105.739 107.546 106.054L106.578 106.454C105.821 106.769 104.959 106.412 104.643 105.655L98.5433 90.8467C98.2909 90.2368 97.4285 90.3209 97.2603 90.9309C96.0193 95.7476 96.4399 101.637 98.8168 107.4C103.423 118.569 113.646 124.922 121.639 121.64C129.631 118.338 132.387 106.622 127.78 95.4532C125.277 89.4164 121.134 84.768 116.59 82.307C115.938 81.9705 115.265 82.5804 115.539 83.2115Z" fill="#F2F2F2"/>
</symbol><symbol id="icon-login" viewBox="0 0 22 19">
<path class="svg-login" fill-rule="evenodd" clip-rule="evenodd" d="M11.0148 18.4874C8.06756 18.4874 5.12033 18.4888 2.17255 18.487C1.26227 18.4865 1 18.2668 1 17.5013C0.999454 16.026 1.81631 14.9394 3.35057 14.339C4.28162 13.9751 5.33178 13.8308 6.33004 13.593C6.56553 13.5367 6.81468 13.519 7.0469 13.4553C8.37244 13.0904 8.34786 13.2291 7.9774 12.0065C7.76923 11.3196 7.18295 10.6886 6.65186 10.1087C6.04428 9.44555 5.57055 8.76144 5.45636 7.91863C5.44215 7.81532 5.38697 7.68966 5.4345 7.61102C6.02351 6.63697 5.54433 5.59173 5.71863 4.58557C5.85577 3.79117 6.1623 3.1173 6.79556 2.53092C6.94254 2.39503 7.04526 2.18328 7.06767 1.99806C7.13596 1.42843 7.45068 1.08405 8.12657 1.03937C10.216 0.902549 12.2425 1.10825 14.1664 1.87892C15.3624 2.3578 16.047 3.15267 16.2295 4.24212C16.3273 4.82292 16.2765 5.42047 16.3246 6.00871C16.3585 6.42988 16.4273 6.85105 16.5142 7.2671C16.7076 8.19228 16.3301 8.98203 15.7252 9.71128C15.4668 10.0231 15.1466 10.2986 14.857 10.5913C14.2724 11.1828 13.9615 11.8674 13.8648 12.6348C13.8238 12.961 13.9145 13.1863 14.3073 13.27C14.9794 13.4138 15.6487 13.5707 16.3273 13.6861C17.6283 13.9058 18.8615 14.232 19.8472 15.0427C20.8083 15.8329 21.1154 16.8041 20.9629 17.9024C20.9001 18.3543 20.528 18.4893 20.0422 18.4884C18.5686 18.4851 17.0945 18.4879 15.6209 18.4879C14.085 18.4879 12.5501 18.4874 11.0148 18.4874ZM7.92823 1.82354C8.27792 2.47368 7.83862 2.7664 7.45724 3.12242C7.14908 3.40956 6.8196 3.77255 6.7524 4.13555C6.61744 4.86759 6.62017 5.62337 6.63438 6.36845C6.64202 6.77798 6.84364 7.18193 6.41637 7.54167C6.32457 7.61939 6.33004 7.86186 6.39998 7.98285C6.7289 8.55155 7.00374 9.16818 7.46762 9.64938C8.36425 10.5783 9.04997 11.5444 9.05543 12.7893C9.05871 13.4888 8.92812 13.7396 8.13422 13.9583C7.34141 14.1771 6.52291 14.3376 5.70442 14.4782C4.68923 14.6532 3.71392 14.8961 2.93531 15.5081C2.19386 16.0903 1.81194 16.799 1.94963 17.6842C2.09278 17.7084 2.17146 17.7326 2.25014 17.7326C8.04133 17.7358 13.8325 17.7349 19.6237 17.7428C20.0204 17.7433 20.1903 17.5571 20.0947 17.2961C19.904 16.7762 19.7368 16.2089 19.362 15.7887C18.62 14.9552 17.4704 14.6918 16.312 14.4791C15.4367 14.3181 14.5696 14.1208 13.7112 13.9011C13.1867 13.7671 12.9725 13.4348 12.961 12.9443C12.931 11.6798 13.5096 10.643 14.4926 9.74293C15.0608 9.22263 15.5231 8.65719 15.6296 7.93399C15.6536 7.77343 15.5908 7.60171 15.5586 7.4365C15.4974 7.12283 15.3892 6.81196 15.3728 6.49689C15.3362 5.78765 15.4001 5.07097 15.316 4.36684C15.2269 3.6213 14.7789 3.03632 13.9604 2.67239C12.855 2.18049 11.677 1.90963 10.446 1.83238C9.64608 1.78305 8.83961 1.82354 7.92823 1.82354Z" fill="#575757" stroke="#575757"/>
</symbol><symbol id="icon-logo" viewBox="0 0 64 64">
<path d="M63.9135 64L0 63.9567L0.0432725 0L64 0.0433018L63.9135 64Z" fill="#F22C2C"/>
</symbol><symbol id="icon-menu" viewBox="0 0 16 15">
<path d="M9.6001 9L9.6001 6L6.4001 6L6.4001 9L9.6001 9Z" fill="white"/>
<path d="M9.6001 15L9.6001 12L6.4001 12L6.4001 15L9.6001 15Z" fill="white"/>
<path d="M9.6001 3L9.6001 0L6.4001 -1.45687e-07L6.4001 3L9.6001 3Z" fill="white"/>
<path d="M3.19995 9L3.19995 6L-4.88758e-05 6L-4.90104e-05 9L3.19995 9Z" fill="white"/>
<path d="M16 9L16 6L12.8 6L12.8 9L16 9Z" fill="white"/>
<path d="M3.19995 15L3.19995 12L-4.88758e-05 12L-4.90104e-05 15L3.19995 15Z" fill="white"/>
<path d="M16 15L16 12L12.8 12L12.8 15L16 15Z" fill="white"/>
<path d="M3.19995 3L3.19995 0L-4.88758e-05 -1.45681e-07L-4.90104e-05 3L3.19995 3Z" fill="white"/>
<path d="M16 3L16 0L12.8 -1.39876e-07L12.8 3L16 3Z" fill="white"/>
</symbol><symbol id="icon-plus" viewBox="0 0 10 10">
<path d="M5 0V10" stroke="#F22C2C" stroke-width="2"/>
<path d="M10 5L4.47035e-07 5" stroke="#F22C2C" stroke-width="2"/>
</symbol></svg>